<svg xmlns="http://www.w3.org/2000/svg" viewBox="0 0 55.54 14.83"><defs><style>.cls-1{fill:#fff;}</style></defs><title>ico_appstore</title><g id="레이어_2" data-name="레이어 2"><g id="_·_ÀÌ_î_1" data-name="·¹ÀÌ¾î_1"><path class="cls-1" d="M8.8,6.89a2.94,2.94,0,0,1,1.41-2.47A3,3,0,0,0,7.83,3.14c-1-.11-2,.59-2.48.59s-1.3-.58-2.14-.57A3.15,3.15,0,0,0,.55,4.79c-1.15,2-.3,4.92.81,6.53.55.79,1.19,1.67,2,1.64s1.13-.53,2.13-.53,1.27.53,2.13.5,1.44-.79,2-1.58a6.86,6.86,0,0,0,.9-1.84A2.87,2.87,0,0,1,8.8,6.89Z"/><path class="cls-1" d="M7.18,2.08A2.9,2.9,0,0,0,7.84,0,3,3,0,0,0,5.93,1a2.77,2.77,0,0,0-.68,2A2.48,2.48,0,0,0,7.18,2.08Z"/><path class="cls-1" d="M20.75,12.84H19.59l-.63-2H16.77l-.61,2H15l2.18-6.76h1.34Zm-2-2.82L18.2,8.26c-.06-.18-.17-.61-.34-1.27h0c-.07.28-.17.71-.32,1.27L17,10Z"/><path class="cls-1" d="M26.34,10.34a2.77,2.77,0,0,1-.67,2,2,2,0,0,1-1.49.64,1.5,1.5,0,0,1-1.39-.69h0v2.57H21.69V9.57c0-.52,0-1.05,0-1.6h1l.06.77h0a1.93,1.93,0,0,1,3.08-.19A2.64,2.64,0,0,1,26.34,10.34Zm-1.1,0a2,2,0,0,0-.32-1.17A1.14,1.14,0,0,0,23.25,9a1.22,1.22,0,0,0-.43.69,1.76,1.76,0,0,0-.05.33v.82a1.27,1.27,0,0,0,.33.89,1.07,1.07,0,0,0,.85.37,1.13,1.13,0,0,0,.95-.47A2.08,2.08,0,0,0,25.24,10.38Z"/><path class="cls-1" d="M32,10.34a2.77,2.77,0,0,1-.68,2,1.94,1.94,0,0,1-1.49.64,1.49,1.49,0,0,1-1.38-.69h0v2.57H27.29V9.57c0-.52,0-1.05,0-1.6h1l.06.77h0a1.93,1.93,0,0,1,3.08-.19A2.69,2.69,0,0,1,32,10.34Zm-1.11,0a2,2,0,0,0-.32-1.17,1.11,1.11,0,0,0-.94-.48,1.12,1.12,0,0,0-.73.27,1.21,1.21,0,0,0-.42.69,1.19,1.19,0,0,0-.05.33v.82a1.31,1.31,0,0,0,.32.89,1.07,1.07,0,0,0,.85.37,1.1,1.1,0,0,0,.95-.47A2.08,2.08,0,0,0,30.84,10.38Z"/><path class="cls-1" d="M38.21,11a1.8,1.8,0,0,1-.6,1.4,2.63,2.63,0,0,1-1.84.59A3.24,3.24,0,0,1,34,12.52l.25-.9a3,3,0,0,0,1.57.43,1.45,1.45,0,0,0,.95-.28.88.88,0,0,0,.34-.73.94.94,0,0,0-.28-.7,2.78,2.78,0,0,0-.93-.52c-1.19-.44-1.78-1.09-1.78-1.94a1.72,1.72,0,0,1,.62-1.36A2.46,2.46,0,0,1,36.42,6,3.3,3.3,0,0,1,38,6.3l-.27.89a2.62,2.62,0,0,0-1.29-.31,1.28,1.28,0,0,0-.89.28.79.79,0,0,0-.27.61.81.81,0,0,0,.31.66,3.49,3.49,0,0,0,1,.52,3.41,3.41,0,0,1,1.28.82A1.72,1.72,0,0,1,38.21,11Z"/><path class="cls-1" d="M41.79,8.78H40.6v2.37q0,.9.63.9a2,2,0,0,0,.48-.05l0,.82a2.41,2.41,0,0,1-.84.12,1.29,1.29,0,0,1-1-.39,1.92,1.92,0,0,1-.36-1.31V8.78h-.71V8h.71V7.08l1.06-.32V8h1.19Z"/><path class="cls-1" d="M47.18,10.37a2.71,2.71,0,0,1-.64,1.84,2.29,2.29,0,0,1-1.79.74A2.21,2.21,0,0,1,43,12.24a2.59,2.59,0,0,1-.63-1.79,2.64,2.64,0,0,1,.65-1.86,2.28,2.28,0,0,1,1.77-.72,2.25,2.25,0,0,1,1.73.71A2.6,2.6,0,0,1,47.18,10.37Zm-1.13,0a2.17,2.17,0,0,0-.29-1.16,1.06,1.06,0,0,0-1-.58,1.08,1.08,0,0,0-1,.58,2.22,2.22,0,0,0-.29,1.18,2.17,2.17,0,0,0,.29,1.16,1.11,1.11,0,0,0,2,0A2.21,2.21,0,0,0,46.05,10.4Z"/><path class="cls-1" d="M50.7,8.92a1.87,1.87,0,0,0-.34,0,1,1,0,0,0-.89.43,1.66,1.66,0,0,0-.27,1v2.55H48.12V9.5c0-.56,0-1.07,0-1.53H49l0,.93h0a1.74,1.74,0,0,1,.54-.77,1.38,1.38,0,0,1,.79-.26l.27,0Z"/><path class="cls-1" d="M55.54,10.17a2.41,2.41,0,0,1,0,.5H52.25a1.41,1.41,0,0,0,.47,1.1,1.62,1.62,0,0,0,1.07.34,3.68,3.68,0,0,0,1.31-.23l.17.75a4.09,4.09,0,0,1-1.63.3,2.38,2.38,0,0,1-1.79-.67,2.44,2.44,0,0,1-.64-1.78,2.81,2.81,0,0,1,.6-1.84,2.08,2.08,0,0,1,1.7-.78,1.82,1.82,0,0,1,1.6.78A2.6,2.6,0,0,1,55.54,10.17Zm-1-.28a1.6,1.6,0,0,0-.21-.83,1,1,0,0,0-.87-.45,1,1,0,0,0-.86.44,1.63,1.63,0,0,0-.32.84Z"/><path class="cls-1" d="M18.41,1.93a1.71,1.71,0,0,1-.53,1.35,2.22,2.22,0,0,1-1.42.41q-.45,0-.78,0V.39A5.37,5.37,0,0,1,16.6.32,2,2,0,0,1,17.92.7,1.52,1.52,0,0,1,18.41,1.93Zm-.56,0a1.19,1.19,0,0,0-.31-.89,1.19,1.19,0,0,0-.9-.31,2.5,2.5,0,0,0-.42,0V3.26h.36a1.25,1.25,0,0,0,.94-.34A1.38,1.38,0,0,0,17.85,1.94Z"/><path class="cls-1" d="M21.39,2.45a1.29,1.29,0,0,1-.32.9,1.1,1.1,0,0,1-.87.37,1.07,1.07,0,0,1-.84-.35A1.27,1.27,0,0,1,19,2.49a1.27,1.27,0,0,1,.33-.91,1.21,1.21,0,0,1,1.71,0A1.25,1.25,0,0,1,21.39,2.45Zm-.55,0a1,1,0,0,0-.15-.56.53.53,0,0,0-.47-.29.53.53,0,0,0-.49.29,1,1,0,0,0-.14.57,1,1,0,0,0,.14.57.53.53,0,0,0,.48.29A.55.55,0,0,0,20.69,3,1.06,1.06,0,0,0,20.84,2.46Z"/><path class="cls-1" d="M25.38,1.27l-.75,2.4h-.49l-.31-1a7.38,7.38,0,0,1-.19-.78h0a7.38,7.38,0,0,1-.19.78l-.33,1h-.5l-.7-2.4h.55l.27,1.14c.06.27.12.52.16.77h0c0-.2.11-.46.2-.77l.34-1.14h.43l.33,1.12c.07.27.14.53.19.79h0a6.64,6.64,0,0,1,.17-.79l.29-1.12Z"/><path class="cls-1" d="M28.14,3.67H27.6V2.29q0-.63-.48-.63a.5.5,0,0,0-.38.17.63.63,0,0,0-.15.41V3.67h-.53V2c0-.21,0-.44,0-.69h.47l0,.37h0a.72.72,0,0,1,.27-.28.92.92,0,0,1,.48-.14.75.75,0,0,1,.56.22,1,1,0,0,1,.28.79Z"/><path class="cls-1" d="M29.6,3.67h-.53V.17h.53Z"/><path class="cls-1" d="M32.74,2.45a1.29,1.29,0,0,1-.32.9,1.1,1.1,0,0,1-.87.37,1.06,1.06,0,0,1-.84-.35,1.27,1.27,0,0,1-.32-.88,1.27,1.27,0,0,1,.33-.91,1.21,1.21,0,0,1,1.71,0A1.25,1.25,0,0,1,32.74,2.45Zm-.55,0A1,1,0,0,0,32,1.9a.53.53,0,0,0-.47-.29.53.53,0,0,0-.49.29,1,1,0,0,0-.15.57,1,1,0,0,0,.15.57.53.53,0,0,0,.48.29A.55.55,0,0,0,32,3,1.06,1.06,0,0,0,32.19,2.46Z"/><path class="cls-1" d="M35.31,3.67h-.47l0-.28h0a.81.81,0,0,1-.7.33.69.69,0,0,1-.54-.22A.66.66,0,0,1,33.35,3a.75.75,0,0,1,.37-.67,1.86,1.86,0,0,1,1-.22V2.07c0-.31-.17-.47-.5-.47a1.08,1.08,0,0,0-.62.18l-.11-.35a1.51,1.51,0,0,1,.82-.21c.63,0,.94.33.94,1v.88A4.51,4.51,0,0,0,35.31,3.67Zm-.55-.83V2.47c-.58,0-.88.15-.88.49a.37.37,0,0,0,.1.28.39.39,0,0,0,.26.09.57.57,0,0,0,.33-.11.46.46,0,0,0,.18-.28A.31.31,0,0,0,34.76,2.84Z"/><path class="cls-1" d="M38.34,3.67h-.47l0-.39h0a.8.8,0,0,1-.77.44.89.89,0,0,1-.72-.34,1.33,1.33,0,0,1-.29-.88,1.42,1.42,0,0,1,.31-.94.94.94,0,0,1,.74-.34.73.73,0,0,1,.68.33h0V.17h.53V3C38.32,3.25,38.33,3.47,38.34,3.67Zm-.55-1v-.4a.72.72,0,0,0,0-.17.55.55,0,0,0-.19-.32.52.52,0,0,0-.36-.14.54.54,0,0,0-.46.24,1,1,0,0,0-.17.61.92.92,0,0,0,.16.57.54.54,0,0,0,.46.24.5.5,0,0,0,.42-.2A.6.6,0,0,0,37.79,2.66Z"/><path class="cls-1" d="M42.89,2.45a1.24,1.24,0,0,1-.32.9,1.1,1.1,0,0,1-.87.37,1.09,1.09,0,0,1-.84-.35,1.26,1.26,0,0,1-.31-.88,1.27,1.27,0,0,1,.32-.91,1.21,1.21,0,0,1,1.71,0A1.25,1.25,0,0,1,42.89,2.45Zm-.55,0a1.08,1.08,0,0,0-.14-.56.54.54,0,0,0-.48-.29.53.53,0,0,0-.49.29,1.12,1.12,0,0,0-.14.57,1.12,1.12,0,0,0,.14.57.55.55,0,0,0,.48.29A.53.53,0,0,0,42.19,3,1.06,1.06,0,0,0,42.34,2.46Z"/><path class="cls-1" d="M45.75,3.67h-.53V2.29q0-.63-.48-.63a.51.51,0,0,0-.39.17.68.68,0,0,0-.14.41V3.67h-.54V2c0-.21,0-.44,0-.69h.47l0,.37h0a.75.75,0,0,1,.28-.28.87.87,0,0,1,.48-.14.76.76,0,0,1,.56.22,1.07,1.07,0,0,1,.27.79Z"/><path class="cls-1" d="M49.33,1.67h-.58V2.83c0,.3.1.45.31.45a.88.88,0,0,0,.24,0v.41a1.55,1.55,0,0,1-.42,0,.63.63,0,0,1-.49-.19.93.93,0,0,1-.17-.64V1.67h-.35v-.4h.35V.83l.52-.16v.6h.58Z"/><path class="cls-1" d="M52.15,3.67h-.53V2.3c0-.43-.16-.64-.48-.64a.5.5,0,0,0-.51.37.58.58,0,0,0,0,.19V3.67h-.53V.17h.53V1.62h0a.8.8,0,0,1,.72-.4.72.72,0,0,1,.55.22,1.09,1.09,0,0,1,.27.8Z"/><path class="cls-1" d="M55.06,2.35a1.69,1.69,0,0,1,0,.25h-1.6a.71.71,0,0,0,.23.54.82.82,0,0,0,.53.16,1.66,1.66,0,0,0,.64-.11l.09.37a2,2,0,0,1-.81.15,1.15,1.15,0,0,1-.87-.33,1.22,1.22,0,0,1-.32-.88,1.36,1.36,0,0,1,.3-.9,1,1,0,0,1,.83-.38.89.89,0,0,1,.79.38A1.3,1.3,0,0,1,55.06,2.35Zm-.51-.13a.76.76,0,0,0-.1-.41A.48.48,0,0,0,54,1.59a.51.51,0,0,0-.42.21.86.86,0,0,0-.16.42Z"/></g></g></svg>