<svg xmlns="http://www.w3.org/2000/svg" xmlns:xlink="http://www.w3.org/1999/xlink" viewBox="0 0 61.9 21.67"><defs><style>.cls-1{fill:none;}.cls-2{fill:#fff;}.cls-3{fill:#5ac9f4;}.cls-4{clip-path:url(#clip-path);}.cls-5{fill:url(#linear-gradient);}.cls-6{clip-path:url(#clip-path-2);}.cls-7{fill:url(#linear-gradient-2);}.cls-8{clip-path:url(#clip-path-3);}.cls-9{fill:url(#linear-gradient-3);}</style><clipPath id="clip-path" transform="translate(3.07 4.11)"><path id="SVGID" class="cls-1" d="M8.65,8.89,6.56,6.79V6.65l2.09-2.1L11.18,6a.77.77,0,0,1,0,1.46L8.7,8.86l0,0"/></clipPath><linearGradient id="linear-gradient" x1="-44.22" y1="37.05" x2="-43.71" y2="37.05" gradientTransform="matrix(-24.18, 0, 0, 24.18, -1055.31, -885.02)" gradientUnits="userSpaceOnUse"><stop offset="0" stop-color="#fee000"/><stop offset="0.4" stop-color="#fcbe0d"/><stop offset="0.77" stop-color="#faa417"/><stop offset="1" stop-color="#f99b1b"/></linearGradient><clipPath id="clip-path-2" transform="translate(3.07 4.11)"><path id="SVGID-2" data-name="SVGID" class="cls-1" d="M8.7,8.86,6.56,6.72.23,13a.84.84,0,0,0,1.06,0L8.7,8.86"/></clipPath><linearGradient id="linear-gradient-2" x1="-44.06" y1="37.38" x2="-43.55" y2="37.38" gradientTransform="matrix(-32.16, 0, 0, 32.16, -1408.79, -1191.98)" gradientUnits="userSpaceOnUse"><stop offset="0" stop-color="#ef4547"/><stop offset="1" stop-color="#c6176d"/></linearGradient><clipPath id="clip-path-3" transform="translate(3.07 4.11)"><path id="SVGID-3" data-name="SVGID" class="cls-1" d="M8.7,4.58,1.29.37A.83.83,0,0,0,.23.4L6.56,6.72,8.7,4.58"/></clipPath><linearGradient id="linear-gradient-3" x1="-42.6" y1="37.46" x2="-42.09" y2="37.46" gradientTransform="matrix(0, 26.26, 26.26, 0, -979.17, 1109.31)" gradientUnits="userSpaceOnUse"><stop offset="0" stop-color="#269e6f"/><stop offset="0.05" stop-color="#2ba06f"/><stop offset="0.47" stop-color="#53b26b"/><stop offset="0.8" stop-color="#6bbd69"/><stop offset="1" stop-color="#74c168"/></linearGradient></defs><title>ico_googleplay</title><g id="레이어_2" data-name="레이어 2"><g id="Isolation_Mode" data-name="Isolation Mode"><path class="cls-2" d="M19,1.77a1.37,1.37,0,0,1-.38,1,1.48,1.48,0,0,1-1.12.45,1.53,1.53,0,0,1-1.12-.45,1.55,1.55,0,0,1-.46-1.14A1.51,1.51,0,0,1,16.4.51,1.5,1.5,0,0,1,17.52.05a1.44,1.44,0,0,1,.62.13,1.23,1.23,0,0,1,.48.34l-.27.27a1,1,0,0,0-.83-.36,1.18,1.18,0,0,0-1.19,1.21,1.15,1.15,0,0,0,.36.88,1.13,1.13,0,0,0,.83.34,1.15,1.15,0,0,0,.85-.34.93.93,0,0,0,.25-.62h-1.1V1.54H19a1.79,1.79,0,0,1,0,.23" transform="translate(3.07 4.11)"/><path class="cls-2" d="M19,1.77H19a1.39,1.39,0,0,1-.37,1h0a1.42,1.42,0,0,1-1.08.43,1.47,1.47,0,0,1-1.09-.44A1.48,1.48,0,0,1,16,1.64a1.48,1.48,0,0,1,.44-1.1A1.51,1.51,0,0,1,17.52.1a1.38,1.38,0,0,1,.6.13,1.15,1.15,0,0,1,.46.32l0,0,0,0-.26.27,0,0,0,0a1.06,1.06,0,0,0-.87-.37,1.15,1.15,0,0,0-.87.35,1.22,1.22,0,0,0-.37.91,1.26,1.26,0,0,0,.37.92,1.23,1.23,0,0,0,.87.35,1.25,1.25,0,0,0,.89-.35,1.1,1.1,0,0,0,.27-.65V1.85H17.57V1.59H19V1.54h-.06a1,1,0,0,1,0,.23h.1a1,1,0,0,0,0-.24v0H17.47V2h1.15V1.9h-.05a.86.86,0,0,1-.24.58,1.07,1.07,0,0,1-.81.33,1.13,1.13,0,0,1-1.13-1.17A1.12,1.12,0,0,1,16.72.8a1.1,1.1,0,0,1,.8-.32,1,1,0,0,1,.79.34l0,0,.31-.31,0,0,0,0a1.34,1.34,0,0,0-.5-.36A1.56,1.56,0,0,0,17.52,0a1.62,1.62,0,0,0-1.16.47,1.59,1.59,0,0,0-.48,1.17,1.56,1.56,0,0,0,.48,1.17,1.54,1.54,0,0,0,1.16.47,1.47,1.47,0,0,0,1.15-.46l0,0,0,0a1.4,1.4,0,0,0,.4-1H19" transform="translate(3.07 4.11)"/><polyline class="cls-2" points="24.42 4.61 23.04 4.61 23.04 5.57 24.29 5.57 24.29 5.94 23.04 5.94 23.04 6.91 24.42 6.91 24.42 7.28 22.64 7.28 22.64 4.23 24.42 4.23 24.42 4.61"/><polyline class="cls-2" points="24.42 4.61 24.42 4.56 22.98 4.56 22.98 5.63 24.23 5.63 24.23 5.89 22.98 5.89 22.98 6.96 24.37 6.96 24.37 7.23 22.7 7.23 22.7 4.29 24.37 4.29 24.37 4.61 24.42 4.61 24.42 4.56 24.42 4.61 24.47 4.61 24.47 4.18 22.59 4.18 22.59 7.33 24.47 7.33 24.47 6.86 23.09 6.86 23.09 5.99 24.34 5.99 24.34 5.52 23.09 5.52 23.09 4.66 24.47 4.66 24.47 4.61 24.42 4.61"/><polyline class="cls-2" points="26.07 7.28 25.68 7.28 25.68 4.61 24.83 4.61 24.83 4.23 26.93 4.23 26.93 4.61 26.07 4.61 26.07 7.28"/><polyline class="cls-2" points="26.07 7.28 26.07 7.23 25.73 7.23 25.73 4.56 24.88 4.56 24.88 4.29 26.88 4.29 26.88 4.56 26.02 4.56 26.02 7.28 26.07 7.28 26.07 7.23 26.07 7.28 26.13 7.28 26.13 4.66 26.98 4.66 26.98 4.18 24.78 4.18 24.78 4.66 25.63 4.66 25.63 7.33 26.13 7.33 26.13 7.28 26.07 7.28"/><rect class="cls-2" x="28.44" y="4.23" width="0.39" height="3.05"/><polyline class="cls-2" points="28.44 7.28 28.49 7.28 28.49 4.29 28.78 4.29 28.78 7.23 28.44 7.23 28.44 7.28 28.49 7.28 28.44 7.28 28.44 7.33 28.88 7.33 28.88 4.18 28.39 4.18 28.39 7.33 28.44 7.33 28.44 7.28"/><polyline class="cls-2" points="30.57 7.28 30.18 7.28 30.18 4.61 29.32 4.61 29.32 4.23 31.42 4.23 31.42 4.61 30.57 4.61 30.57 7.28"/><polyline class="cls-2" points="30.57 7.28 30.57 7.23 30.23 7.23 30.23 4.56 29.38 4.56 29.38 4.29 31.37 4.29 31.37 4.56 30.52 4.56 30.52 7.28 30.57 7.28 30.57 7.23 30.57 7.28 30.62 7.28 30.62 4.66 31.47 4.66 31.47 4.18 29.27 4.18 29.27 4.66 30.13 4.66 30.13 7.33 30.62 7.33 30.62 7.28 30.57 7.28"/><path class="cls-2" d="M32.32,2.77a1.5,1.5,0,0,1-1.12.46,1.49,1.49,0,0,1-1.12-.46,1.55,1.55,0,0,1-.45-1.13A1.57,1.57,0,0,1,30.08.51,1.49,1.49,0,0,1,31.2.05a1.52,1.52,0,0,1,1.11.46,1.57,1.57,0,0,1,.45,1.13,1.55,1.55,0,0,1-.44,1.13m-1.95-.25a1.18,1.18,0,0,0,1.66,0,1.22,1.22,0,0,0,.34-.88A1.22,1.22,0,0,0,32,.77a1.18,1.18,0,0,0-1.66,0,1.22,1.22,0,0,0-.34.87A1.22,1.22,0,0,0,30.37,2.52Z" transform="translate(3.07 4.11)"/><path class="cls-2" d="M32.32,2.77l0,0a1.43,1.43,0,0,1-1.08.44,1.42,1.42,0,0,1-1.08-.44h0a1.52,1.52,0,0,1-.44-1.1A1.51,1.51,0,0,1,30.12.55,1.43,1.43,0,0,1,31.2.1a1.44,1.44,0,0,1,1.08.45,1.5,1.5,0,0,1,.43,1.09,1.51,1.51,0,0,1-.43,1.1l.07.07a1.62,1.62,0,0,0,.47-1.17A1.62,1.62,0,0,0,32.35.48,1.55,1.55,0,0,0,31.2,0a1.52,1.52,0,0,0-1.15.48,1.6,1.6,0,0,0-.47,1.16,1.62,1.62,0,0,0,.47,1.17h0a1.64,1.64,0,0,0,2.3,0l0,0m-1.95-.25,0,0a1.19,1.19,0,0,0,.87.36,1.15,1.15,0,0,0,.86-.36,1.21,1.21,0,0,0,.36-.91,1.24,1.24,0,0,0-.36-.91A1.1,1.1,0,0,0,31.2.38a1.14,1.14,0,0,0-.87.35,1.28,1.28,0,0,0-.35.91,1.24,1.24,0,0,0,.35.91l.08-.07a1.12,1.12,0,0,1-.33-.84A1.14,1.14,0,0,1,30.41.8h0A1,1,0,0,1,31.2.48,1.06,1.06,0,0,1,32,.8a1.18,1.18,0,0,1,.33.84,1.16,1.16,0,0,1-.33.84,1.07,1.07,0,0,1-.79.33,1,1,0,0,1-.79-.33Z" transform="translate(3.07 4.11)"/><polyline class="cls-2" points="36.38 7.28 36.38 4.23 36.86 4.23 38.34 6.6 38.35 6.6 38.34 6.02 38.34 4.23 38.73 4.23 38.73 7.28 38.32 7.28 36.77 4.79 36.76 4.79 36.77 5.38 36.77 7.28 36.38 7.28"/><polyline class="cls-2" points="36.38 7.28 36.43 7.28 36.43 4.29 36.83 4.29 38.31 6.66 38.41 6.66 38.39 6.02 38.39 4.29 38.68 4.29 38.68 7.23 38.35 7.23 36.8 4.75 36.7 4.75 36.72 5.38 36.72 7.23 36.38 7.23 36.38 7.28 36.43 7.28 36.38 7.28 36.38 7.33 36.82 7.33 36.82 5.38 36.81 4.79 36.76 4.79 36.76 4.85 36.77 4.85 36.77 4.79 36.73 4.82 38.29 7.33 38.78 7.33 38.78 4.18 38.29 4.18 38.29 6.02 38.3 6.61 38.35 6.6 38.35 6.55 38.34 6.55 38.34 6.6 38.38 6.58 36.89 4.18 36.33 4.18 36.33 7.33 36.38 7.33 36.38 7.28"/><path class="cls-2" d="M29.54,7.61A2.16,2.16,0,1,0,31.7,9.77a2.13,2.13,0,0,0-2.16-2.16m0,3.47a1.25,1.25,0,0,1-1.22-1.31,1.22,1.22,0,1,1,2.43,0A1.25,1.25,0,0,1,29.54,11.08ZM24.81,7.61A2.16,2.16,0,1,0,27,9.77,2.13,2.13,0,0,0,24.81,7.61Zm0,3.47a1.25,1.25,0,0,1-1.22-1.31,1.22,1.22,0,1,1,2.44,0A1.25,1.25,0,0,1,24.81,11.08ZM19.18,8.27v.92h2.19a1.81,1.81,0,0,1-.5,1.15,2.21,2.21,0,0,1-1.69.67,2.44,2.44,0,0,1,0-4.87,2.31,2.31,0,0,1,1.65.65l.65-.64a3.18,3.18,0,0,0-2.3-.93,3.36,3.36,0,1,0,0,6.71A3.08,3.08,0,0,0,21.52,11a3,3,0,0,0,.79-2.14,3.37,3.37,0,0,0,0-.58Zm23,.71a2,2,0,0,0-1.85-1.37,2.06,2.06,0,0,0-2,2.16,2.16,2.16,0,0,0,4,1.2l-.74-.49a1.23,1.23,0,0,1-1.06.6,1.1,1.1,0,0,1-1.05-.65l2.89-1.2Zm-2.94.73a1.17,1.17,0,0,1,1.12-1.26.82.82,0,0,1,.8.45ZM36.9,11.8h1V5.45h-1ZM35.34,8.09h0a1.5,1.5,0,0,0-1.14-.48,2.16,2.16,0,0,0,0,4.32,1.47,1.47,0,0,0,1.14-.49h0v.31c0,.83-.44,1.27-1.15,1.27a1.21,1.21,0,0,1-1.09-.77l-.83.34a2.06,2.06,0,0,0,1.92,1.28,2,2,0,0,0,2.05-2.25V7.74h-.9Zm-1.09,3a1.24,1.24,0,0,1-1.2-1.3,1.25,1.25,0,0,1,1.2-1.32,1.22,1.22,0,0,1,1.16,1.32A1.21,1.21,0,0,1,34.25,11.08ZM46.64,5.45H44.37V11.8h.94V9.39h1.33a2,2,0,0,0,2.08-2A2,2,0,0,0,46.64,5.45Zm0,3.06H45.31V6.33h1.35a1.09,1.09,0,1,1,0,2.18Zm5.86-.91a1.77,1.77,0,0,0-1.69,1l.84.35a.89.89,0,0,1,.86-.46.91.91,0,0,1,1,.81v.07a2.06,2.06,0,0,0-1-.25c-.91,0-1.83.5-1.83,1.43a1.47,1.47,0,0,0,1.58,1.4,1.36,1.36,0,0,0,1.21-.62h0v.49h.91V9.36A1.74,1.74,0,0,0,52.52,7.6Zm-.12,3.48c-.31,0-.74-.16-.74-.54s.54-.68,1-.68a1.71,1.71,0,0,1,.87.21A1.15,1.15,0,0,1,52.4,11.08Zm5.38-3.34-1.09,2.75h0L55.53,7.74h-1l1.69,3.84-1,2.14h1l2.61-6ZM49.24,11.8h.95V5.45h-.95Z" transform="translate(3.07 4.11)"/><path class="cls-3" d="M.23.4A1,1,0,0,0,0,1.11V12.33A1,1,0,0,0,.23,13l0,0L6.56,6.79V6.65L.27.36l0,0" transform="translate(3.07 4.11)"/><g class="cls-4"><rect class="cls-5" x="9.62" y="8.67" width="5.33" height="4.34"/></g><g class="cls-6"><rect class="cls-7" x="-0.86" y="4.69" width="10.66" height="10.66" transform="translate(-2.71 10.21) rotate(-45)"/></g><g class="cls-8"><rect class="cls-9" x="-0.86" y="-1.91" width="10.66" height="10.66" transform="translate(1.96 8.28) rotate(-45)"/></g></g></g></svg>