<svg xmlns="http://www.w3.org/2000/svg" viewBox="0 0 100.48 122.9"><defs><style>.cls-1{fill:#fff;}</style></defs><title>ico_popcorn</title><g id="레이어_2" data-name="레이어 2"><g id="Layer_1" data-name="Layer 1"><path class="cls-1" d="M4.38,62.4a13,13,0,0,1-1.75-2,15.33,15.33,0,0,1-2.6-8,20,20,0,0,1,1.28-8.12,17.54,17.54,0,0,1,3.42-5.64,18.14,18.14,0,0,1-1.12-8.19,19.43,19.43,0,0,1,3-8.66,19.85,19.85,0,0,1,6.65-6.39,18.64,18.64,0,0,1,8.4-2.52A18.77,18.77,0,0,1,30.58,2.71,22.86,22.86,0,0,1,38.45.21a24.36,24.36,0,0,1,8.09.28A18.78,18.78,0,0,1,57.08,6.4a21.82,21.82,0,0,1,13.71.43,22.25,22.25,0,0,1,6.54,3.62,18.42,18.42,0,0,1,4.82,5.76,16,16,0,0,1,1.74,9.5,20.14,20.14,0,0,1,7.79,4.15,24.83,24.83,0,0,1,6.56,8.84,25.48,25.48,0,0,1,2.23,11.12,23.37,23.37,0,0,1-5.23,14.1l-12.19,59H66.57l2.77-64.53H90.62a16.31,16.31,0,0,0,2.84-8.74,18.51,18.51,0,0,0-1.62-8.07,17.88,17.88,0,0,0-4.69-6.33,12.51,12.51,0,0,0-7.63-3.12L74.69,32l1.61-4.53a9.67,9.67,0,0,0-.36-7.94,11.4,11.4,0,0,0-3-3.55,15.41,15.41,0,0,0-4.47-2.46,14,14,0,0,0-11,.37l-3.08,1.62-1.65-3.06c-1.41-2.62-4.29-4.32-7.6-5a17.57,17.57,0,0,0-5.75-.2,15.07,15.07,0,0,0-5.46,1.7,11.91,11.91,0,0,0-6.18,8.23L27.1,20.2,24,19.91a12,12,0,0,0-7.2,1.55,12.54,12.54,0,0,0-4.25,4.1,12.36,12.36,0,0,0-1.93,5.5,11.11,11.11,0,0,0,1.47,6.67l1.63,2.8L11,42.38a9.37,9.37,0,0,0-3.16,4.39A13,13,0,0,0,7,52a8.36,8.36,0,0,0,1.37,4.35,6.08,6.08,0,0,0,2.37,2H30l5.34,64.53H16.82L4.38,62.4ZM62.1,26.23a4.55,4.55,0,1,1-4.55,4.55,4.55,4.55,0,0,1,4.55-4.55ZM48.16,40.32a4.55,4.55,0,1,1-4.55,4.55,4.55,4.55,0,0,1,4.55-4.55Zm-19.7-8.64a4.55,4.55,0,1,1-4.55,4.55,4.55,4.55,0,0,1,4.55-4.55ZM60,122.87H42L36.66,58.34H62.72L60,122.87Z"/></g></g></svg>