<svg xmlns="http://www.w3.org/2000/svg" viewBox="0 0 122.91 113.76"><defs><style>.cls-1{fill:#fff;fill-rule:evenodd;}</style></defs><title>ico_speaker</title><g id="레이어_2" data-name="레이어 2"><g id="Layer_1" data-name="Layer 1"><path class="cls-1" d="M0,67.63c-.06-5.83,2.16-11,7.37-12.69l.13-.22a3,3,0,0,1,.6-.8,3.18,3.18,0,0,1,1.05-.5l.29-.11C34.7,44,46.09,30.1,52.64,20.64c0,9.29,2.33,21.4,6.43,33.12,4.21,12,10.29,23.71,17.71,31.76h0c-7.73-2.2-17.43-5-33.21-2.85a15.17,15.17,0,0,0-1.12,5.06,3.94,3.94,0,0,0,1,3l.24.22c1,.91,1.49,1.36,1.71,2.17a9.18,9.18,0,0,1-.13,3.22l-.09.67c-.37,2.93,1,3.53,2.46,4.13s2.51,1.08,3.08,2.69a.68.68,0,0,1,0,.4c-.58,3-2.5,4.64-4.43,6.29-.47.41-.95.82-1.36,1.21h-.06c-3.92,3.14-6.57,2.3-8.58-.22-1.58-2-2.68-5-3.7-7.81l-.44-1.22a122.8,122.8,0,0,1-4-15.09l-.34-1.5c-.87.24-1.78.51-2.73.79h0c-1.2.35-2.4.73-3.59,1.11l-.38.14a1.23,1.23,0,0,1-1.33,0C13.47,90,8.2,87,4.68,82a25.09,25.09,0,0,1-3.41-6.9A25.87,25.87,0,0,1,0,67.63ZM87.81,16.19a3,3,0,0,1-4.2-.57l0,0-.07-.09a3.06,3.06,0,0,1,.63-4.19C89,7.72,93.84,4.1,98.7.59a3,3,0,0,1,4.22.65v.05a3,3,0,0,1,.52,2.23,3,3,0,0,1-1.21,2Zm15.79,57.7h0a3,3,0,0,1-3-3.07v-.07a3,3,0,0,1,3-3h.07c5.37,0,10.83.2,16.2.3A3.06,3.06,0,0,1,122,73.3a3,3,0,0,1-2.16.86l-16.19-.31Zm.47-15.71a3,3,0,0,1-3.25-2.73v-.12a3.07,3.07,0,0,1,2.77-3.23c5-.4,10.09-.83,15.1-1.15a3,3,0,0,1,3.24,2.81h0A3,3,0,0,1,121.2,56,3.1,3.1,0,0,1,119.12,57c-4.85.48-10.18.88-15.05,1.14Zm-2.16-14.59a3.07,3.07,0,0,1-3.78-2.11h0a3,3,0,0,1,.27-2.3,3.1,3.1,0,0,1,1.83-1.46c5.21-1.37,10.4-3,15.61-4.45a3,3,0,0,1,2.3.27,3.06,3.06,0,0,1,1.45,1.8h0a3.07,3.07,0,0,1-2.1,3.78L101.9,43.57Zm-6.3-14.32a3.06,3.06,0,0,1-4.09-1.37h0a3,3,0,0,1-.17-2.33,3.08,3.08,0,0,1,1.53-1.77l15-7.49a3,3,0,0,1,4.05,1.28l0,.09a3,3,0,0,1,.16,2.33,3.12,3.12,0,0,1-1.53,1.76l-15,7.5ZM58.75,12c.13-.15.27-.29.4-.42a4.47,4.47,0,0,1,1.48-1.11h0a3.5,3.5,0,0,1,2-.08c2.25.36,4.66,2,7.11,4.51,6,6.19,12.32,18,16.82,30.41s7.2,25.36,5.85,33.77c-.51,3.13-1.57,5.66-3.31,7.33l-.09.07a5.69,5.69,0,0,1-2.47,1,1.57,1.57,0,0,0-.25-.2C80.3,83,75,75.93,70.54,67.58c1.14.22,2.6-.63,4-2.08,7-7.38,3.56-20.28-5.17-23.27-3.56-1.2-7.1-1.2-8.5-.51l-.15.08C57.52,29.45,56.61,18,58.75,12Z"/></g></g></svg>