<svg xmlns="http://www.w3.org/2000/svg" viewBox="0 0 122.89 122.88"><defs><style>.cls-1{fill:#fff;}.cls-1,.cls-2{fill-rule:evenodd;}</style></defs><title>ico_discount</title><g id="레이어_2" data-name="레이어 2"><g id="Layer_1" data-name="Layer 1"><path class="cls-1" d="M17.46,49.64l-9.24-16a2.91,2.91,0,0,1,2.52-4.35H29.26V10.67a2.92,2.92,0,0,1,2.92-2.92,3,3,0,0,1,1.64.5l15.82,9.2,9.29-16a2.9,2.9,0,0,1,5,0l9.28,16,16-9.31a2.9,2.9,0,0,1,4,1.06,2.86,2.86,0,0,1,.39,1.46v18.6h18.6a2.92,2.92,0,0,1,2.92,2.92,3,3,0,0,1-.5,1.64l-9.2,15.82,16,9.29a2.9,2.9,0,0,1,0,5l-16,9.28,9.31,16a2.9,2.9,0,0,1-1.06,4,2.86,2.86,0,0,1-1.46.39H93.63v18.52A2.92,2.92,0,0,1,89,114.52l-15.77-9.1-9.29,16a2.9,2.9,0,0,1-5,0l-9.28-16-16,9.24a2.91,2.91,0,0,1-4.35-2.52h0V93.63H10.74A2.92,2.92,0,0,1,8.36,89l9.1-15.77L1.45,64a2.9,2.9,0,0,1,0-5l16-9.29Z"/><path class="cls-2" d="M44.67,40.47a12.17,12.17,0,0,1,8.67,3.07,10.67,10.67,0,0,1,3.27,8.16,10.68,10.68,0,0,1-3.27,8.17,12.17,12.17,0,0,1-8.67,3.07A12.19,12.19,0,0,1,36,59.87a10.69,10.69,0,0,1-3.28-8.17A10.67,10.67,0,0,1,36,43.54a12.15,12.15,0,0,1,8.66-3.07Z"/><polygon class="cls-2" points="70.87 42.07 80.59 42.07 52.13 80.78 42.41 80.78 70.87 42.07 70.87 42.07"/><path class="cls-1" d="M44.67,49.14a2.31,2.31,0,0,0-1.78.67,3.24,3.24,0,0,0,0,3.81,2.71,2.71,0,0,0,3.57,0,2.76,2.76,0,0,0,.61-1.91,2.71,2.71,0,0,0-.61-1.9,2.31,2.31,0,0,0-1.79-.67Z"/><path class="cls-2" d="M78.2,59.94A12.19,12.19,0,0,1,86.86,63a10.69,10.69,0,0,1,3.28,8.17,10.67,10.67,0,0,1-3.28,8.16,12.15,12.15,0,0,1-8.66,3.07,12.17,12.17,0,0,1-8.67-3.07,10.67,10.67,0,0,1-3.27-8.16A10.68,10.68,0,0,1,69.53,63a12.22,12.22,0,0,1,8.67-3.07Z"/><path class="cls-1" d="M78.2,68.61a2.34,2.34,0,0,0-1.79.67,3.24,3.24,0,0,0,0,3.81,2.3,2.3,0,0,0,1.79.67A2.33,2.33,0,0,0,80,73.09a3.24,3.24,0,0,0,0-3.81,2.26,2.26,0,0,0-1.78-.67Z"/></g></g></svg>