<svg xmlns="http://www.w3.org/2000/svg" viewBox="0 0 122.88 122.88"><defs><style>.cls-1{fill:#fff;fill-rule:evenodd;}</style></defs><title>ico_ticket</title><g id="레이어_2" data-name="레이어 2"><g id="Layer_1" data-name="Layer 1"><path class="cls-1" d="M1,80,64.7,16.3a1.86,1.86,0,0,0,1.55-.52,1.82,1.82,0,0,0,.52-1.55L80,1A3.58,3.58,0,0,1,85,1L95.44,11.48a11.61,11.61,0,0,0,16,16l10.43,10.43a3.58,3.58,0,0,1,0,5.05L108.64,56.11a1.87,1.87,0,0,0-1.55.52,1.82,1.82,0,0,0-.52,1.55L42.92,121.83a3.58,3.58,0,0,1-5.05,0L27.5,111.47A11.61,11.61,0,0,0,11.42,95.39L1,85A3.58,3.58,0,0,1,1,80ZM102.27,51.81a1.85,1.85,0,1,1,0,2.61,1.85,1.85,0,0,1,0-2.61ZM97.44,47a1.85,1.85,0,1,1,0,2.61,1.85,1.85,0,0,1,0-2.61Zm-4.83-4.83a1.85,1.85,0,1,1,0,2.61,1.85,1.85,0,0,1,0-2.61Zm-4.83-4.83a1.85,1.85,0,1,1,0,2.61,1.85,1.85,0,0,1,0-2.61ZM83,32.49a1.85,1.85,0,1,1,0,2.61,1.85,1.85,0,0,1,0-2.61Zm-4.83-4.83a1.85,1.85,0,1,1,0,2.61,1.85,1.85,0,0,1,0-2.61Zm-4.83-4.83a1.85,1.85,0,1,1,0,2.61,1.85,1.85,0,0,1,0-2.61ZM68.46,18a1.85,1.85,0,1,1,0,2.61,1.85,1.85,0,0,1,0-2.61Zm-43,56.91L64.83,35.53a4.18,4.18,0,0,1,5.89,0l18.1,18.1a4.18,4.18,0,0,1,0,5.89L49.44,98.9a4.18,4.18,0,0,1-5.89,0L25.45,80.8a4.18,4.18,0,0,1,0-5.89Z"/></g></g></svg>