<svg xmlns="http://www.w3.org/2000/svg" viewBox="0 0 115.46 122.88"><defs><style>.cls-1{fill:#fff;}.cls-1,.cls-2{fill-rule:evenodd;}</style></defs><title>ico_movie</title><g id="레이어_2" data-name="레이어 2"><g id="Layer_1" data-name="Layer 1"><polygon class="cls-1" points="108.07 15.56 5.7 52.84 0 37.22 102.37 0 108.07 15.56 108.07 15.56"/><polygon class="cls-1" points="115.46 122.88 5.87 122.88 5.87 53.67 115.46 53.67 115.46 122.88 115.46 122.88"/><polygon class="cls-2" points="101.79 15.65 101.79 2.36 94.56 4.97 94.56 18.31 101.79 15.65 101.79 15.65 101.79 15.65"/><polygon class="cls-2" points="87.39 20.93 87.39 7.59 80.13 10.17 80.13 23.62 87.39 20.93 87.39 20.93"/><polygon class="cls-2" points="72.49 26.07 72.49 12.87 65.23 15.48 65.23 28.74 72.49 26.07 72.49 26.07 72.49 26.07"/><polygon class="cls-2" points="113.43 68.32 108.87 55.78 101.14 55.78 105.7 68.32 113.43 68.32 113.43 68.32"/><polygon class="cls-2" points="97.64 68.32 93.08 55.78 85.32 55.78 89.91 68.32 97.64 68.32 97.64 68.32"/><polygon class="cls-2" points="57.98 31.69 57.98 18.32 50.73 20.93 50.73 34.27 57.98 31.69 57.98 31.69"/><polygon class="cls-2" points="82.41 68.32 77.85 55.78 70.12 55.78 74.68 68.32 82.41 68.32 82.41 68.32"/><polygon class="cls-2" points="43.08 36.8 43.08 23.54 35.74 26.15 35.74 39.49 43.08 36.8 43.08 36.8"/><polygon class="cls-2" points="66.62 68.32 62.06 55.78 54.31 55.78 58.87 68.32 66.62 68.32 66.62 68.32"/><polygon class="cls-2" points="28.82 42.28 28.82 28.9 21.51 31.6 21.51 44.86 28.82 42.28 28.82 42.28 28.82 42.28"/><polygon class="cls-2" points="51.06 68.32 46.5 55.78 38.77 55.78 43.33 68.32 51.06 68.32 51.06 68.32"/><polygon class="cls-2" points="13.84 47.39 13.84 34.13 6.58 36.71 6.58 50.08 13.84 47.39 13.84 47.39"/><polygon class="cls-2" points="35.36 68.32 30.72 55.78 23.05 55.78 27.53 68.32 35.36 68.32 35.36 68.32"/><polygon class="cls-2" points="19.96 68.32 15.32 55.78 7.59 55.78 12.15 68.32 19.96 68.32 19.96 68.32"/></g></g></svg>