<svg xmlns="http://www.w3.org/2000/svg" viewBox="0 0 512 411.93"><defs><style>.cls-1{fill:#fff;fill-rule:evenodd;}</style></defs><title>ico_theater</title><g id="레이어_2" data-name="레이어 2"><g id="레이어_1-2" data-name="레이어 1"><path class="cls-1" d="M438.84,265.71H388.09a20.58,20.58,0,0,0-20.52,20.52v15h18.62a33.92,33.92,0,0,1,24,10,33.44,33.44,0,0,1,3.25,3.77,34.64,34.64,0,0,1,3.22-3.72l.08-.08a34,34,0,0,1,24-9.95h18.62v-15A20.57,20.57,0,0,0,438.84,265.71ZM278.46,130.21c3.56-2.31,3.56-4.88,0-6.92l-36.9-21.21c-2.92-1.83-6-.75-5.87,3l.12,42.87c.24,4.12,2.6,5.25,6.07,3.34l36.58-21.13ZM46.13,1.21A1658.9,1658.9,0,0,0,253.49,14.14,1702,1702,0,0,0,460.86,1.21L470.54,0V251.71l-9.68-1.18A1724.61,1724.61,0,0,0,253.49,237.6,1637.48,1637.48,0,0,0,46.16,250.49l-9.72,1.23V0l9.69,1.21ZM253.49,31.35A1675.62,1675.62,0,0,1,53.72,19.54V232.21a1654.61,1654.61,0,0,1,199.77-11.82,1741,1741,0,0,1,199.78,11.84V19.52A1716.44,1716.44,0,0,1,253.49,31.35Zm0,24.39a70.13,70.13,0,1,1-70.13,70.13,70.13,70.13,0,0,1,70.13-70.13Zm0,14.24a55.89,55.89,0,1,1-55.88,55.89A55.89,55.89,0,0,1,253.49,70ZM440.73,314.75h50.75A20.57,20.57,0,0,1,512,335.26v76.67H420.21V335.26a20.57,20.57,0,0,1,20.52-20.51Zm-264.48,0H125.49A20.57,20.57,0,0,0,105,335.26v76.67h91.78V335.26a20.58,20.58,0,0,0-20.51-20.51Zm-155.73,0H71.27a20.58,20.58,0,0,1,20.52,20.51v76.67H0V335.26A20.57,20.57,0,0,1,20.52,314.75Zm210,0h50.75a20.58,20.58,0,0,1,20.52,20.51v76.67H210V335.26a20.57,20.57,0,0,1,20.52-20.51Zm155.72,0H335.44a20.57,20.57,0,0,0-20.51,20.51v76.67h91.78V335.26A20.58,20.58,0,0,0,386.19,314.75Zm-313-49h50.75a20.58,20.58,0,0,1,20.52,20.52v15H125.49a33.92,33.92,0,0,0-24,10,34.45,34.45,0,0,0-3.08,3.53,33.27,33.27,0,0,0-3.08-3.53,33.9,33.9,0,0,0-24-10H52.64v-15A20.58,20.58,0,0,1,73.16,265.71Zm155.73,0H178.14a20.58,20.58,0,0,0-20.52,20.52v15h18.63a33.92,33.92,0,0,1,24,10,33.33,33.33,0,0,1,3.07,3.53,34.61,34.61,0,0,1,3.08-3.53,33.92,33.92,0,0,1,24-10H249.4v-15A20.57,20.57,0,0,0,228.89,265.71Zm54.22,0h50.75a20.58,20.58,0,0,1,20.52,20.52v15H335.44a33.92,33.92,0,0,0-24,10,34.45,34.45,0,0,0-3.08,3.53,33.27,33.27,0,0,0-3.08-3.53,33.9,33.9,0,0,0-24-10H262.59v-15A20.58,20.58,0,0,1,283.11,265.71Z"/></g></g></svg>